<svg width="500" height="416" viewBox="0 0 500 416" fill="none" xmlns="http://www.w3.org/2000/svg">
<path d="M295.447 171.06C295.327 171.141 295.207 171.222 294.937 171.45C294.703 171.739 294.619 171.881 294.534 172.023C294.39 172.031 294.28 172.107 294.048 172.418C293.518 173.043 293.144 173.503 292.771 173.962C292.302 174.408 291.833 174.853 291.178 175.48C290.495 176.268 289.999 176.875 289.503 177.481C282.251 185.247 274.99 193.001 267.749 200.78C260.347 208.732 252.966 216.709 245.571 224.67C245.125 225.15 244.639 225.578 244.172 226.031C243.966 225.957 243.76 225.884 243.554 225.811C244.466 218.118 245.109 210.365 246.344 202.745C249.374 184.045 255.028 166.607 265.219 151.556C273.398 139.476 283.81 130.925 295.798 124.916C308.058 118.771 320.853 115.211 334.121 113.991C337.803 113.653 341.494 113.44 345.47 113.149C345.47 116.008 345.581 118.534 345.453 121.043C344.356 142.52 340.421 163.127 331.585 182.149C322.252 202.243 307.909 215.418 290.014 223.589C277.525 229.292 264.53 232.191 251.208 233.25C250.886 233.275 250.562 233.253 249.756 233.253C251.628 230.812 253.188 228.752 254.772 226.717C268.406 209.194 282.046 191.679 295.673 174.148C296.325 173.309 296.86 172.345 297.643 171.227C301.033 167.094 304.231 163.174 307.429 159.253C307.214 159.013 307 158.773 306.786 158.533C303.304 162.386 299.822 166.24 296.34 170.093C296.213 170.18 296.086 170.267 295.806 170.498C295.585 170.782 295.516 170.921 295.447 171.06Z" fill="#228B22"/>
<path d="M201.563 185.981C206.17 191.966 210.764 197.965 215.386 203.934C222.37 212.955 229.374 221.956 236.367 230.968C236.678 231.368 236.969 231.791 237.269 232.203C237.197 232.436 237.125 232.669 237.053 232.901C231.228 231.806 225.363 230.943 219.587 229.56C210.901 227.481 202.709 223.751 195.142 218.225C185.405 211.114 178.284 201.298 173.392 189.132C167.352 174.109 164.906 158.192 164.616 141.298C165.912 141.298 167.069 141.236 168.219 141.307C180.668 142.082 192.726 144.841 204.162 150.936C222.929 160.938 233.568 178.697 238.574 201.576C240.362 209.745 241.233 218.193 242.523 226.513C242.245 226.662 241.968 226.811 241.691 226.96C229.021 213.32 216.35 199.68 203.495 185.823C200.113 182.247 196.916 178.889 193.683 175.389C193.457 175.294 193.267 175.339 193.078 175.385C193.3 175.419 193.523 175.452 193.702 175.657C196.293 179.213 198.928 182.597 201.563 185.981Z" fill="#228B22"/>
<path d="M296.489 170.094C299.822 166.24 303.304 162.386 306.786 158.533C307 158.773 307.214 159.013 307.429 159.253C304.231 163.174 301.033 167.094 297.702 171.077C297.258 170.791 296.948 170.443 296.489 170.094Z" fill="#F4F4F4"/>
<path d="M193.718 175.53C196.916 178.889 200.113 182.247 203.366 185.761C202.926 185.929 202.43 185.942 201.749 185.968C198.928 182.597 196.293 179.213 193.695 175.668C193.732 175.508 193.718 175.53 193.718 175.53Z" fill="#F4F4F4"/>
<path d="M295.539 171.015C295.516 170.921 295.585 170.782 295.758 170.618C295.824 170.752 295.747 170.878 295.539 171.015Z" fill="#F4F4F4"/>
<path d="M193.739 175.497C193.523 175.452 193.3 175.419 193.078 175.385C193.267 175.339 193.457 175.294 193.683 175.389C193.718 175.53 193.732 175.508 193.739 175.497Z" fill="#F4F4F4"/>
<path d="M187.49 251.393C189.056 251.51 190.468 251.446 191.774 251.856C192.378 252.046 193.196 253.205 193.147 253.842C193.097 254.501 192.167 255.463 191.526 255.583C190.117 255.847 188.648 255.665 186.878 255.665C187.023 254.179 187.158 252.793 187.49 251.393Z" fill="#F4F4F4"/>
<path d="M171.89 277.45H168.85L168.29 279H167.33L169.85 272.07H170.9L173.41 279H172.45L171.89 277.45ZM171.63 276.71L170.37 273.19L169.11 276.71H171.63ZM175.418 272.03V279H174.508V272.03H175.418ZM180.769 274.95V275.72H176.779V274.95H180.769ZM183.387 274.53C183.567 274.217 183.834 273.957 184.187 273.75C184.547 273.537 184.964 273.43 185.437 273.43C185.924 273.43 186.364 273.547 186.757 273.78C187.157 274.013 187.47 274.343 187.697 274.77C187.924 275.19 188.037 275.68 188.037 276.24C188.037 276.793 187.924 277.287 187.697 277.72C187.47 278.153 187.157 278.49 186.757 278.73C186.364 278.97 185.924 279.09 185.437 279.09C184.97 279.09 184.557 278.987 184.197 278.78C183.844 278.567 183.574 278.303 183.387 277.99V281.6H182.477V273.52H183.387V274.53ZM187.107 276.24C187.107 275.827 187.024 275.467 186.857 275.16C186.69 274.853 186.464 274.62 186.177 274.46C185.897 274.3 185.587 274.22 185.247 274.22C184.914 274.22 184.604 274.303 184.317 274.47C184.037 274.63 183.81 274.867 183.637 275.18C183.47 275.487 183.387 275.843 183.387 276.25C183.387 276.663 183.47 277.027 183.637 277.34C183.81 277.647 184.037 277.883 184.317 278.05C184.604 278.21 184.914 278.29 185.247 278.29C185.587 278.29 185.897 278.21 186.177 278.05C186.464 277.883 186.69 277.647 186.857 277.34C187.024 277.027 187.107 276.66 187.107 276.24ZM191.625 279.09C191.112 279.09 190.645 278.973 190.225 278.74C189.812 278.507 189.485 278.177 189.245 277.75C189.012 277.317 188.895 276.817 188.895 276.25C188.895 275.69 189.015 275.197 189.255 274.77C189.502 274.337 189.835 274.007 190.255 273.78C190.675 273.547 191.145 273.43 191.665 273.43C192.185 273.43 192.655 273.547 193.075 273.78C193.495 274.007 193.825 274.333 194.065 274.76C194.312 275.187 194.435 275.683 194.435 276.25C194.435 276.817 194.308 277.317 194.055 277.75C193.808 278.177 193.472 278.507 193.045 278.74C192.618 278.973 192.145 279.09 191.625 279.09ZM191.625 278.29C191.952 278.29 192.258 278.213 192.545 278.06C192.832 277.907 193.062 277.677 193.235 277.37C193.415 277.063 193.505 276.69 193.505 276.25C193.505 275.81 193.418 275.437 193.245 275.13C193.072 274.823 192.845 274.597 192.565 274.45C192.285 274.297 191.982 274.22 191.655 274.22C191.322 274.22 191.015 274.297 190.735 274.45C190.462 274.597 190.242 274.823 190.075 275.13C189.908 275.437 189.825 275.81 189.825 276.25C189.825 276.697 189.905 277.073 190.065 277.38C190.232 277.687 190.452 277.917 190.725 278.07C190.998 278.217 191.298 278.29 191.625 278.29ZM202.931 273.52L201.221 279H200.281L198.961 274.65L197.641 279H196.701L194.981 273.52H195.911L197.171 278.12L198.531 273.52H199.461L200.791 278.13L202.031 273.52H202.931ZM208.834 276.05C208.834 276.223 208.824 276.407 208.804 276.6H204.424C204.458 277.14 204.641 277.563 204.974 277.87C205.314 278.17 205.724 278.32 206.204 278.32C206.598 278.32 206.924 278.23 207.184 278.05C207.451 277.863 207.638 277.617 207.744 277.31H208.724C208.578 277.837 208.284 278.267 207.844 278.6C207.404 278.927 206.858 279.09 206.204 279.09C205.684 279.09 205.218 278.973 204.804 278.74C204.398 278.507 204.078 278.177 203.844 277.75C203.611 277.317 203.494 276.817 203.494 276.25C203.494 275.683 203.608 275.187 203.834 274.76C204.061 274.333 204.378 274.007 204.784 273.78C205.198 273.547 205.671 273.43 206.204 273.43C206.724 273.43 207.184 273.543 207.584 273.77C207.984 273.997 208.291 274.31 208.504 274.71C208.724 275.103 208.834 275.55 208.834 276.05ZM207.894 275.86C207.894 275.513 207.818 275.217 207.664 274.97C207.511 274.717 207.301 274.527 207.034 274.4C206.774 274.267 206.484 274.2 206.164 274.2C205.704 274.2 205.311 274.347 204.984 274.64C204.664 274.933 204.481 275.34 204.434 275.86H207.894ZM210.946 274.41C211.106 274.097 211.332 273.853 211.626 273.68C211.926 273.507 212.289 273.42 212.716 273.42V274.36H212.476C211.456 274.36 210.946 274.913 210.946 276.02V279H210.036V273.52H210.946V274.41ZM218.766 276.05C218.766 276.223 218.756 276.407 218.736 276.6H214.356C214.389 277.14 214.573 277.563 214.906 277.87C215.246 278.17 215.656 278.32 216.136 278.32C216.529 278.32 216.856 278.23 217.116 278.05C217.383 277.863 217.569 277.617 217.676 277.31H218.656C218.509 277.837 218.216 278.267 217.776 278.6C217.336 278.927 216.789 279.09 216.136 279.09C215.616 279.09 215.149 278.973 214.736 278.74C214.329 278.507 214.009 278.177 213.776 277.75C213.543 277.317 213.426 276.817 213.426 276.25C213.426 275.683 213.539 275.187 213.766 274.76C213.993 274.333 214.309 274.007 214.716 273.78C215.129 273.547 215.603 273.43 216.136 273.43C216.656 273.43 217.116 273.543 217.516 273.77C217.916 273.997 218.223 274.31 218.436 274.71C218.656 275.103 218.766 275.55 218.766 276.05ZM217.826 275.86C217.826 275.513 217.749 275.217 217.596 274.97C217.443 274.717 217.233 274.527 216.966 274.4C216.706 274.267 216.416 274.2 216.096 274.2C215.636 274.2 215.243 274.347 214.916 274.64C214.596 274.933 214.413 275.34 214.366 275.86H217.826ZM219.627 276.24C219.627 275.68 219.741 275.19 219.967 274.77C220.194 274.343 220.504 274.013 220.897 273.78C221.297 273.547 221.744 273.43 222.237 273.43C222.664 273.43 223.061 273.53 223.427 273.73C223.794 273.923 224.074 274.18 224.267 274.5V271.6H225.187V279H224.267V277.97C224.087 278.297 223.821 278.567 223.467 278.78C223.114 278.987 222.701 279.09 222.227 279.09C221.741 279.09 221.297 278.97 220.897 278.73C220.504 278.49 220.194 278.153 219.967 277.72C219.741 277.287 219.627 276.793 219.627 276.24ZM224.267 276.25C224.267 275.837 224.184 275.477 224.017 275.17C223.851 274.863 223.624 274.63 223.337 274.47C223.057 274.303 222.747 274.22 222.407 274.22C222.067 274.22 221.757 274.3 221.477 274.46C221.197 274.62 220.974 274.853 220.807 275.16C220.641 275.467 220.557 275.827 220.557 276.24C220.557 276.66 220.641 277.027 220.807 277.34C220.974 277.647 221.197 277.883 221.477 278.05C221.757 278.21 222.067 278.29 222.407 278.29C222.747 278.29 223.057 278.21 223.337 278.05C223.624 277.883 223.851 277.647 224.017 277.34C224.184 277.027 224.267 276.663 224.267 276.25ZM234.051 274.07C234.051 274.65 233.851 275.133 233.451 275.52C233.058 275.9 232.454 276.09 231.641 276.09H230.301V279H229.391V272.03H231.641C232.428 272.03 233.024 272.22 233.431 272.6C233.844 272.98 234.051 273.47 234.051 274.07ZM231.641 275.34C232.148 275.34 232.521 275.23 232.761 275.01C233.001 274.79 233.121 274.477 233.121 274.07C233.121 273.21 232.628 272.78 231.641 272.78H230.301V275.34H231.641ZM236.092 271.6V279H235.182V271.6H236.092ZM237.303 276.24C237.303 275.68 237.416 275.19 237.643 274.77C237.87 274.343 238.18 274.013 238.573 273.78C238.973 273.547 239.416 273.43 239.903 273.43C240.383 273.43 240.8 273.533 241.153 273.74C241.506 273.947 241.77 274.207 241.943 274.52V273.52H242.863V279H241.943V277.98C241.763 278.3 241.493 278.567 241.133 278.78C240.78 278.987 240.366 279.09 239.893 279.09C239.406 279.09 238.966 278.97 238.573 278.73C238.18 278.49 237.87 278.153 237.643 277.72C237.416 277.287 237.303 276.793 237.303 276.24ZM241.943 276.25C241.943 275.837 241.86 275.477 241.693 275.17C241.526 274.863 241.3 274.63 241.013 274.47C240.733 274.303 240.423 274.22 240.083 274.22C239.743 274.22 239.433 274.3 239.153 274.46C238.873 274.62 238.65 274.853 238.483 275.16C238.316 275.467 238.233 275.827 238.233 276.24C238.233 276.66 238.316 277.027 238.483 277.34C238.65 277.647 238.873 277.883 239.153 278.05C239.433 278.21 239.743 278.29 240.083 278.29C240.423 278.29 240.733 278.21 241.013 278.05C241.3 277.883 241.526 277.647 241.693 277.34C241.86 277.027 241.943 276.663 241.943 276.25ZM247.071 273.42C247.738 273.42 248.278 273.623 248.691 274.03C249.104 274.43 249.311 275.01 249.311 275.77V279H248.411V275.9C248.411 275.353 248.274 274.937 248.001 274.65C247.728 274.357 247.354 274.21 246.881 274.21C246.401 274.21 246.018 274.36 245.731 274.66C245.451 274.96 245.311 275.397 245.311 275.97V279H244.401V273.52H245.311V274.3C245.491 274.02 245.734 273.803 246.041 273.65C246.354 273.497 246.698 273.42 247.071 273.42ZM251.907 274.27V277.5C251.907 277.767 251.964 277.957 252.077 278.07C252.191 278.177 252.387 278.23 252.667 278.23H253.337V279H252.517C252.011 279 251.631 278.883 251.377 278.65C251.124 278.417 250.997 278.033 250.997 277.5V274.27H250.287V273.52H250.997V272.14H251.907V273.52H253.337V274.27H251.907ZM262.476 272.03V279H261.566V275.84H258.016V279H257.106V272.03H258.016V275.09H261.566V272.03H262.476ZM269.03 276.05C269.03 276.223 269.02 276.407 269 276.6H264.62C264.653 277.14 264.836 277.563 265.17 277.87C265.51 278.17 265.92 278.32 266.4 278.32C266.793 278.32 267.12 278.23 267.38 278.05C267.646 277.863 267.833 277.617 267.94 277.31H268.92C268.773 277.837 268.48 278.267 268.04 278.6C267.6 278.927 267.053 279.09 266.4 279.09C265.88 279.09 265.413 278.973 265 278.74C264.593 278.507 264.273 278.177 264.04 277.75C263.806 277.317 263.69 276.817 263.69 276.25C263.69 275.683 263.803 275.187 264.03 274.76C264.256 274.333 264.573 274.007 264.98 273.78C265.393 273.547 265.866 273.43 266.4 273.43C266.92 273.43 267.38 273.543 267.78 273.77C268.18 273.997 268.486 274.31 268.7 274.71C268.92 275.103 269.03 275.55 269.03 276.05ZM268.09 275.86C268.09 275.513 268.013 275.217 267.86 274.97C267.706 274.717 267.496 274.527 267.23 274.4C266.97 274.267 266.68 274.2 266.36 274.2C265.9 274.2 265.506 274.347 265.18 274.64C264.86 274.933 264.676 275.34 264.63 275.86H268.09ZM269.891 276.24C269.891 275.68 270.004 275.19 270.231 274.77C270.458 274.343 270.768 274.013 271.161 273.78C271.561 273.547 272.004 273.43 272.491 273.43C272.971 273.43 273.388 273.533 273.741 273.74C274.094 273.947 274.358 274.207 274.531 274.52V273.52H275.451V279H274.531V277.98C274.351 278.3 274.081 278.567 273.721 278.78C273.368 278.987 272.954 279.09 272.481 279.09C271.994 279.09 271.554 278.97 271.161 278.73C270.768 278.49 270.458 278.153 270.231 277.72C270.004 277.287 269.891 276.793 269.891 276.24ZM274.531 276.25C274.531 275.837 274.448 275.477 274.281 275.17C274.114 274.863 273.888 274.63 273.601 274.47C273.321 274.303 273.011 274.22 272.671 274.22C272.331 274.22 272.021 274.3 271.741 274.46C271.461 274.62 271.238 274.853 271.071 275.16C270.904 275.467 270.821 275.827 270.821 276.24C270.821 276.66 270.904 277.027 271.071 277.34C271.238 277.647 271.461 277.883 271.741 278.05C272.021 278.21 272.331 278.29 272.671 278.29C273.011 278.29 273.321 278.21 273.601 278.05C273.888 277.883 274.114 277.647 274.281 277.34C274.448 277.027 274.531 276.663 274.531 276.25ZM277.899 271.6V279H276.989V271.6H277.899ZM280.56 274.27V277.5C280.56 277.767 280.616 277.957 280.73 278.07C280.843 278.177 281.04 278.23 281.32 278.23H281.99V279H281.17C280.663 279 280.283 278.883 280.03 278.65C279.776 278.417 279.65 278.033 279.65 277.5V274.27H278.94V273.52H279.65V272.14H280.56V273.52H281.99V274.27H280.56ZM285.812 273.42C286.226 273.42 286.599 273.51 286.932 273.69C287.266 273.863 287.526 274.127 287.712 274.48C287.906 274.833 288.002 275.263 288.002 275.77V279H287.102V275.9C287.102 275.353 286.966 274.937 286.692 274.65C286.419 274.357 286.046 274.21 285.572 274.21C285.092 274.21 284.709 274.36 284.422 274.66C284.142 274.96 284.002 275.397 284.002 275.97V279H283.092V271.6H284.002V274.3C284.182 274.02 284.429 273.803 284.742 273.65C285.062 273.497 285.419 273.42 285.812 273.42ZM299.225 272.08V279H298.315V273.84L296.015 279H295.375L293.065 273.83V279H292.155V272.08H293.135L295.695 277.8L298.255 272.08H299.225ZM303.158 279.09C302.645 279.09 302.178 278.973 301.758 278.74C301.345 278.507 301.018 278.177 300.778 277.75C300.545 277.317 300.428 276.817 300.428 276.25C300.428 275.69 300.548 275.197 300.788 274.77C301.035 274.337 301.368 274.007 301.788 273.78C302.208 273.547 302.678 273.43 303.198 273.43C303.718 273.43 304.188 273.547 304.608 273.78C305.028 274.007 305.358 274.333 305.598 274.76C305.845 275.187 305.968 275.683 305.968 276.25C305.968 276.817 305.841 277.317 305.588 277.75C305.341 278.177 305.005 278.507 304.578 278.74C304.151 278.973 303.678 279.09 303.158 279.09ZM303.158 278.29C303.485 278.29 303.791 278.213 304.078 278.06C304.365 277.907 304.595 277.677 304.768 277.37C304.948 277.063 305.038 276.69 305.038 276.25C305.038 275.81 304.951 275.437 304.778 275.13C304.605 274.823 304.378 274.597 304.098 274.45C303.818 274.297 303.515 274.22 303.188 274.22C302.855 274.22 302.548 274.297 302.268 274.45C301.995 274.597 301.775 274.823 301.608 275.13C301.441 275.437 301.358 275.81 301.358 276.25C301.358 276.697 301.438 277.073 301.598 277.38C301.765 277.687 301.985 277.917 302.258 278.07C302.531 278.217 302.831 278.29 303.158 278.29ZM309.835 273.42C310.501 273.42 311.041 273.623 311.455 274.03C311.868 274.43 312.075 275.01 312.075 275.77V279H311.175V275.9C311.175 275.353 311.038 274.937 310.765 274.65C310.491 274.357 310.118 274.21 309.645 274.21C309.165 274.21 308.781 274.36 308.495 274.66C308.215 274.96 308.075 275.397 308.075 275.97V279H307.165V273.52H308.075V274.3C308.255 274.02 308.498 273.803 308.805 273.65C309.118 273.497 309.461 273.42 309.835 273.42ZM314.031 272.63C313.858 272.63 313.711 272.57 313.591 272.45C313.471 272.33 313.411 272.183 313.411 272.01C313.411 271.837 313.471 271.69 313.591 271.57C313.711 271.45 313.858 271.39 314.031 271.39C314.198 271.39 314.338 271.45 314.451 271.57C314.571 271.69 314.631 271.837 314.631 272.01C314.631 272.183 314.571 272.33 314.451 272.45C314.338 272.57 314.198 272.63 314.031 272.63ZM314.471 273.52V279H313.561V273.52H314.471ZM317.132 274.27V277.5C317.132 277.767 317.189 277.957 317.302 278.07C317.415 278.177 317.612 278.23 317.892 278.23H318.562V279H317.742C317.235 279 316.855 278.883 316.602 278.65C316.349 278.417 316.222 278.033 316.222 277.5V274.27H315.512V273.52H316.222V272.14H317.132V273.52H318.562V274.27H317.132ZM322.055 279.09C321.541 279.09 321.075 278.973 320.655 278.74C320.241 278.507 319.915 278.177 319.675 277.75C319.441 277.317 319.325 276.817 319.325 276.25C319.325 275.69 319.445 275.197 319.685 274.77C319.931 274.337 320.265 274.007 320.685 273.78C321.105 273.547 321.575 273.43 322.095 273.43C322.615 273.43 323.085 273.547 323.505 273.78C323.925 274.007 324.255 274.333 324.495 274.76C324.741 275.187 324.865 275.683 324.865 276.25C324.865 276.817 324.738 277.317 324.485 277.75C324.238 278.177 323.901 278.507 323.475 278.74C323.048 278.973 322.575 279.09 322.055 279.09ZM322.055 278.29C322.381 278.29 322.688 278.213 322.975 278.06C323.261 277.907 323.491 277.677 323.665 277.37C323.845 277.063 323.935 276.69 323.935 276.25C323.935 275.81 323.848 275.437 323.675 275.13C323.501 274.823 323.275 274.597 322.995 274.45C322.715 274.297 322.411 274.22 322.085 274.22C321.751 274.22 321.445 274.297 321.165 274.45C320.891 274.597 320.671 274.823 320.505 275.13C320.338 275.437 320.255 275.81 320.255 276.25C320.255 276.697 320.335 277.073 320.495 277.38C320.661 277.687 320.881 277.917 321.155 278.07C321.428 278.217 321.728 278.29 322.055 278.29ZM326.971 274.41C327.131 274.097 327.358 273.853 327.651 273.68C327.951 273.507 328.314 273.42 328.741 273.42V274.36H328.501C327.481 274.36 326.971 274.913 326.971 276.02V279H326.061V273.52H326.971V274.41ZM330.261 272.63C330.088 272.63 329.941 272.57 329.821 272.45C329.701 272.33 329.641 272.183 329.641 272.01C329.641 271.837 329.701 271.69 329.821 271.57C329.941 271.45 330.088 271.39 330.261 271.39C330.428 271.39 330.568 271.45 330.681 271.57C330.801 271.69 330.861 271.837 330.861 272.01C330.861 272.183 330.801 272.33 330.681 272.45C330.568 272.57 330.428 272.63 330.261 272.63ZM330.701 273.52V279H329.791V273.52H330.701ZM334.922 273.42C335.589 273.42 336.129 273.623 336.542 274.03C336.956 274.43 337.162 275.01 337.162 275.77V279H336.262V275.9C336.262 275.353 336.126 274.937 335.852 274.65C335.579 274.357 335.206 274.21 334.732 274.21C334.252 274.21 333.869 274.36 333.582 274.66C333.302 274.96 333.162 275.397 333.162 275.97V279H332.252V273.52H333.162V274.3C333.342 274.02 333.586 273.803 333.892 273.65C334.206 273.497 334.549 273.42 334.922 273.42ZM340.909 273.43C341.382 273.43 341.796 273.533 342.149 273.74C342.509 273.947 342.776 274.207 342.949 274.52V273.52H343.869V279.12C343.869 279.62 343.762 280.063 343.549 280.45C343.336 280.843 343.029 281.15 342.629 281.37C342.236 281.59 341.776 281.7 341.249 281.7C340.529 281.7 339.929 281.53 339.449 281.19C338.969 280.85 338.686 280.387 338.599 279.8H339.499C339.599 280.133 339.806 280.4 340.119 280.6C340.432 280.807 340.809 280.91 341.249 280.91C341.749 280.91 342.156 280.753 342.469 280.44C342.789 280.127 342.949 279.687 342.949 279.12V277.97C342.769 278.29 342.502 278.557 342.149 278.77C341.796 278.983 341.382 279.09 340.909 279.09C340.422 279.09 339.979 278.97 339.579 278.73C339.186 278.49 338.876 278.153 338.649 277.72C338.422 277.287 338.309 276.793 338.309 276.24C338.309 275.68 338.422 275.19 338.649 274.77C338.876 274.343 339.186 274.013 339.579 273.78C339.979 273.547 340.422 273.43 340.909 273.43ZM342.949 276.25C342.949 275.837 342.866 275.477 342.699 275.17C342.532 274.863 342.306 274.63 342.019 274.47C341.739 274.303 341.429 274.22 341.089 274.22C340.749 274.22 340.439 274.3 340.159 274.46C339.879 274.62 339.656 274.853 339.489 275.16C339.322 275.467 339.239 275.827 339.239 276.24C339.239 276.66 339.322 277.027 339.489 277.34C339.656 277.647 339.879 277.883 340.159 278.05C340.439 278.21 340.749 278.29 341.089 278.29C341.429 278.29 341.739 278.21 342.019 278.05C342.306 277.883 342.532 277.647 342.699 277.34C342.866 277.027 342.949 276.663 342.949 276.25Z" fill="#DAA520"/>
<path d="M174.456 257.776H181.624V262H168.984V239.536H174.456V257.776ZM201.066 252.784C201.066 253.296 201.034 253.829 200.97 254.384H188.586C188.671 255.493 189.023 256.347 189.642 256.944C190.282 257.52 191.061 257.808 191.978 257.808C193.343 257.808 194.293 257.232 194.826 256.08H200.65C200.351 257.253 199.807 258.309 199.018 259.248C198.25 260.187 197.279 260.923 196.106 261.456C194.933 261.989 193.621 262.256 192.17 262.256C190.421 262.256 188.863 261.883 187.498 261.136C186.133 260.389 185.066 259.323 184.298 257.936C183.53 256.549 183.146 254.928 183.146 253.072C183.146 251.216 183.519 249.595 184.266 248.208C185.034 246.821 186.101 245.755 187.466 245.008C188.831 244.261 190.399 243.888 192.17 243.888C193.898 243.888 195.434 244.251 196.778 244.976C198.122 245.701 199.167 246.736 199.914 248.08C200.682 249.424 201.066 250.992 201.066 252.784ZM195.466 251.344C195.466 250.405 195.146 249.659 194.506 249.104C193.866 248.549 193.066 248.272 192.106 248.272C191.189 248.272 190.41 248.539 189.77 249.072C189.151 249.605 188.767 250.363 188.618 251.344H195.466ZM202.865 253.04C202.865 251.205 203.206 249.595 203.889 248.208C204.593 246.821 205.542 245.755 206.737 245.008C207.931 244.261 209.265 243.888 210.737 243.888C211.995 243.888 213.094 244.144 214.033 244.656C214.993 245.168 215.729 245.84 216.241 246.672V244.144H221.713V262H216.241V259.472C215.707 260.304 214.961 260.976 214.001 261.488C213.062 262 211.963 262.256 210.705 262.256C209.254 262.256 207.931 261.883 206.737 261.136C205.542 260.368 204.593 259.291 203.889 257.904C203.206 256.496 202.865 254.875 202.865 253.04ZM216.241 253.072C216.241 251.707 215.857 250.629 215.089 249.84C214.342 249.051 213.425 248.656 212.337 248.656C211.249 248.656 210.321 249.051 209.553 249.84C208.806 250.608 208.433 251.675 208.433 253.04C208.433 254.405 208.806 255.493 209.553 256.304C210.321 257.093 211.249 257.488 212.337 257.488C213.425 257.488 214.342 257.093 215.089 256.304C215.857 255.515 216.241 254.437 216.241 253.072ZM234.632 248.688H231.688V262H226.216V248.688H224.232V244.144H226.216V243.632C226.216 241.435 226.845 239.771 228.104 238.64C229.362 237.488 231.208 236.912 233.64 236.912C234.045 236.912 234.344 236.923 234.536 236.944V241.584C233.49 241.52 232.754 241.669 232.328 242.032C231.901 242.395 231.688 243.045 231.688 243.984V244.144H234.632V248.688Z" fill="#2C3E50"/>
<path d="M253.896 246.64C253.491 245.893 252.904 245.328 252.136 244.944C251.389 244.539 250.504 244.336 249.48 244.336C247.709 244.336 246.291 244.923 245.224 246.096C244.157 247.248 243.624 248.795 243.624 250.736C243.624 252.805 244.179 254.427 245.288 255.6C246.419 256.752 247.965 257.328 249.928 257.328C251.272 257.328 252.403 256.987 253.32 256.304C254.259 255.621 254.941 254.64 255.368 253.36H248.424V249.328H260.328V254.416C259.923 255.781 259.229 257.051 258.248 258.224C257.288 259.397 256.061 260.347 254.568 261.072C253.075 261.797 251.389 262.16 249.512 262.16C247.293 262.16 245.309 261.68 243.56 260.72C241.832 259.739 240.477 258.384 239.496 256.656C238.536 254.928 238.056 252.955 238.056 250.736C238.056 248.517 238.536 246.544 239.496 244.816C240.477 243.067 241.832 241.712 243.56 240.752C245.288 239.771 247.261 239.28 249.48 239.28C252.168 239.28 254.429 239.931 256.264 241.232C258.12 242.533 259.347 244.336 259.944 246.64H253.896ZM280.991 244.144V262H275.519V259.568C274.964 260.357 274.207 260.997 273.247 261.488C272.308 261.957 271.263 262.192 270.111 262.192C268.746 262.192 267.54 261.893 266.495 261.296C265.45 260.677 264.639 259.792 264.063 258.64C263.487 257.488 263.199 256.133 263.199 254.576V244.144H268.639V253.84C268.639 255.035 268.948 255.963 269.567 256.624C270.186 257.285 271.018 257.616 272.063 257.616C273.13 257.616 273.972 257.285 274.591 256.624C275.21 255.963 275.519 255.035 275.519 253.84V244.144H280.991ZM283.834 253.04C283.834 251.205 284.175 249.595 284.858 248.208C285.562 246.821 286.511 245.755 287.706 245.008C288.9 244.261 290.234 243.888 291.706 243.888C292.964 243.888 294.063 244.144 295.002 244.656C295.962 245.168 296.698 245.84 297.21 246.672V244.144H302.682V262H297.21V259.472C296.676 260.304 295.93 260.976 294.97 261.488C294.031 262 292.932 262.256 291.674 262.256C290.223 262.256 288.9 261.883 287.706 261.136C286.511 260.368 285.562 259.291 284.858 257.904C284.175 256.496 283.834 254.875 283.834 253.04ZM297.21 253.072C297.21 251.707 296.826 250.629 296.058 249.84C295.311 249.051 294.394 248.656 293.306 248.656C292.218 248.656 291.29 249.051 290.522 249.84C289.775 250.608 289.402 251.675 289.402 253.04C289.402 254.405 289.775 255.493 290.522 256.304C291.29 257.093 292.218 257.488 293.306 257.488C294.394 257.488 295.311 257.093 296.058 256.304C296.826 255.515 297.21 254.437 297.21 253.072ZM312.112 247.12C312.752 246.139 313.552 245.371 314.512 244.816C315.472 244.24 316.539 243.952 317.712 243.952V249.744H316.208C314.843 249.744 313.819 250.043 313.136 250.64C312.454 251.216 312.112 252.24 312.112 253.712V262H306.64V244.144H312.112V247.12ZM319.24 253.04C319.24 251.205 319.581 249.595 320.264 248.208C320.968 246.821 321.917 245.755 323.112 245.008C324.306 244.261 325.64 243.888 327.112 243.888C328.285 243.888 329.352 244.133 330.312 244.624C331.293 245.115 332.061 245.776 332.616 246.608V238.32H338.088V262H332.616V259.44C332.104 260.293 331.368 260.976 330.408 261.488C329.469 262 328.37 262.256 327.112 262.256C325.64 262.256 324.306 261.883 323.112 261.136C321.917 260.368 320.968 259.291 320.264 257.904C319.581 256.496 319.24 254.875 319.24 253.04ZM332.616 253.072C332.616 251.707 332.232 250.629 331.464 249.84C330.717 249.051 329.8 248.656 328.712 248.656C327.624 248.656 326.696 249.051 325.928 249.84C325.181 250.608 324.808 251.675 324.808 253.04C324.808 254.405 325.181 255.493 325.928 256.304C326.696 257.093 327.624 257.488 328.712 257.488C329.8 257.488 330.717 257.093 331.464 256.304C332.232 255.515 332.616 254.437 332.616 253.072Z" fill="#2C3E50"/>
<g filter="url(#filter0_d_9_107)">
<line x1="169" y1="266.8" x2="339" y2="266.8" stroke="#2C3E50" stroke-width="0.4"/>
</g>
<defs>
<filter id="filter0_d_9_107" x="165" y="266.6" width="178" height="8.40002" filterUnits="userSpaceOnUse" color-interpolation-filters="sRGB">
<feFlood flood-opacity="0" result="BackgroundImageFix"/>
<feColorMatrix in="SourceAlpha" type="matrix" values="0 0 0 0 0 0 0 0 0 0 0 0 0 0 0 0 0 0 127 0" result="hardAlpha"/>
<feOffset dy="4"/>
<feGaussianBlur stdDeviation="2"/>
<feComposite in2="hardAlpha" operator="out"/>
<feColorMatrix type="matrix" values="0 0 0 0 0 0 0 0 0 0 0 0 0 0 0 0 0 0 0.25 0"/>
<feBlend mode="normal" in2="BackgroundImageFix" result="effect1_dropShadow_9_107"/>
<feBlend mode="normal" in="SourceGraphic" in2="effect1_dropShadow_9_107" result="shape"/>
</filter>
</defs>
</svg>
